<svg width="123" height="123" viewBox="0 0 123 123" fill="none" xmlns="http://www.w3.org/2000/svg">
<g clip-path="url(#clip0_337_1648)">
<path d="M113.707 9.29265C111.249 6.83365 108.366 4.83908 105.198 3.40505C102.032 1.96137 98.6263 1.11421 95.1528 0.9061C85.7002 0.32185 73.7447 0 61.5 0C49.2553 0 37.31 0.32185 27.8328 0.9061C24.3683 1.1152 20.9694 1.96185 17.8083 3.40095C13.0403 5.55899 8.9488 8.9728 5.97155 13.2771C2.99429 17.5814 1.24335 22.6142 0.9061 27.837C0.32185 37.31 0 49.2553 0 61.5C0 73.7447 0.32185 85.7002 0.9061 95.161C1.24139 100.383 2.99088 105.416 5.9672 109.72C8.94352 114.024 13.0346 117.438 17.8022 119.595C20.9683 121.039 24.3737 121.886 27.8472 122.094C37.31 122.678 49.2553 123 61.5 123C73.7447 123 85.7002 122.678 95.1671 122.094C98.6343 121.884 102.033 121.038 105.194 119.597C109.961 117.439 114.052 114.026 117.029 109.722C120.006 105.418 121.757 100.385 122.094 95.163C122.678 85.7002 123 73.7447 123 61.5C123 49.2553 122.678 37.31 122.094 27.841C121.655 20.8421 118.672 14.245 113.707 9.29265ZM118.002 94.915C117.711 99.395 116.207 103.712 113.651 107.402C111.095 111.093 107.583 114.02 103.492 115.868C100.788 117.1 97.8809 117.824 94.915 118.002C85.528 118.58 73.6627 118.9 61.5 118.9C49.3373 118.9 37.472 118.58 28.085 118.002C25.1176 117.823 22.2086 117.099 19.5037 115.866C15.414 114.016 11.9039 111.09 9.34889 107.4C6.79384 103.709 5.2899 99.394 4.9979 94.915C4.4198 85.528 4.1 73.6627 4.1 61.5C4.1 49.3373 4.4198 37.472 4.9979 28.085C5.28904 23.605 6.79307 19.2885 9.349 15.5976C11.9049 11.9067 15.4165 8.98038 19.5078 7.13195C22.2115 5.89987 25.1191 5.17645 28.085 4.9979C37.472 4.4198 49.3373 4.1 61.5 4.1C73.6627 4.1 85.528 4.4198 94.915 4.9979C97.8824 5.1766 100.791 5.90073 103.496 7.134C107.586 8.98358 111.096 11.91 113.651 15.6003C116.206 19.2906 117.71 23.606 118.002 28.085C118.58 37.472 118.9 49.3373 118.9 61.5C118.9 73.6627 118.58 85.528 118.002 94.915Z" fill="#535353"/>
<path d="M94.4025 13.1807C98.4052 13.4306 102.179 15.1321 105.017 17.966C107.855 20.8 109.561 24.5718 109.816 28.5742C109.848 29.0963 110.078 29.5866 110.459 29.9449C110.84 30.3031 111.343 30.5021 111.866 30.5012H111.992C112.534 30.4684 113.041 30.2216 113.402 29.8148C113.763 29.4081 113.947 28.8748 113.914 28.3323C113.598 23.3323 111.469 18.6193 107.926 15.0773C104.383 11.5352 99.6692 9.40746 94.669 9.09302C94.1253 9.05849 93.5902 9.24136 93.1813 9.6014C92.7725 9.96144 92.5234 10.4691 92.4889 11.0128C92.4543 11.5565 92.6372 12.0917 92.9972 12.5005C93.3573 12.9094 93.865 13.1585 94.4087 13.193L94.4025 13.1807ZM11.0126 30.5135H11.1377C11.6607 30.5144 12.1643 30.3154 12.5454 29.9572C12.9265 29.5989 13.1563 29.1086 13.1877 28.5865C13.4544 24.5856 15.1653 20.8177 18.0022 17.9839C20.839 15.1501 24.6087 13.4432 28.6098 13.1807C29.1512 13.1434 29.6559 12.8934 30.0135 12.4852C30.3711 12.077 30.5527 11.5439 30.5186 11.0023C30.4845 10.4607 30.2374 9.95463 29.8314 9.59458C29.4254 9.23453 28.8933 9.0498 28.3515 9.08072C23.3488 9.4023 18.6341 11.5339 15.088 15.0773C11.5419 18.6208 9.40685 23.3339 9.08154 28.3364C9.06434 28.6063 9.10075 28.877 9.18866 29.1329C9.27658 29.3887 9.41426 29.6246 9.59377 29.827C9.77328 30.0294 9.99107 30.1942 10.2346 30.3121C10.4781 30.4299 10.7425 30.4983 11.0126 30.5135ZM61.5 61.4992C76.219 61.4992 88.15 49.5682 88.15 34.8492C88.15 20.1302 76.219 8.19922 61.5 8.19922C46.781 8.19922 34.85 20.1302 34.85 34.8492C34.8664 49.56 46.7892 61.4828 61.5 61.4992ZM61.5 12.2992C73.9538 12.2992 84.05 22.3955 84.05 34.8492C84.05 47.303 73.9538 57.3992 61.5 57.3992C49.0463 57.3992 38.95 47.303 38.95 34.8492C38.9644 22.4016 49.0524 12.3136 61.5 12.2992Z" fill="#535353"/>
<path d="M95.6734 53.2984H94.2384C89.531 53.3672 85.0022 55.1116 81.4649 58.2184C75.9056 62.9795 68.8275 65.5962 61.5081 65.5962C54.1888 65.5962 47.1106 62.9795 41.5514 58.2184C38.012 55.1098 33.4799 53.3653 28.7696 53.2984H27.3346C24.8076 53.2975 22.3057 53.7998 19.9748 54.7759C17.6439 55.752 15.5307 57.1824 13.7584 58.9837C11.9861 60.785 10.5902 62.9212 9.65205 65.2676C8.71391 67.614 8.25234 70.1238 8.29424 72.6504C8.39674 78.4888 8.61814 87.0476 9.08964 94.6674C9.40552 99.6662 11.5433 104.376 15.0982 107.904C16.8612 109.667 18.9296 111.102 21.201 112.133C23.4532 113.162 25.8759 113.766 28.3473 113.915C37.5395 114.485 49.3127 114.798 61.4999 114.798C73.6872 114.798 85.4603 114.485 94.6546 113.913C97.1232 113.764 99.5431 113.161 101.793 112.133C104.064 111.102 106.139 109.673 107.912 107.921C111.463 104.374 113.597 99.6535 113.914 94.6449C114.39 86.9881 114.611 78.4499 114.714 72.6525C114.756 70.1256 114.295 67.6157 113.357 65.269C112.419 62.9224 111.023 60.786 109.25 58.9844C107.478 57.1829 105.365 55.7523 103.034 54.7761C100.703 53.7998 98.2006 53.2975 95.6734 53.2984ZM109.818 94.3968C109.562 98.4027 107.854 102.178 105.013 105.014C103.582 106.424 101.913 107.571 100.083 108.4C98.2892 109.22 96.3622 109.698 94.3942 109.817C85.2799 110.387 73.6052 110.698 61.4999 110.698C49.3947 110.698 37.7199 110.387 28.6056 109.821C26.6349 109.703 24.7028 109.222 22.9066 108.402C21.0756 107.575 19.4089 106.425 17.9866 105.006C15.14 102.184 13.4267 98.4171 13.1712 94.4173C12.7038 86.8672 12.4865 78.374 12.384 72.5787C12.3513 70.5958 12.7139 68.6264 13.4505 66.7852C14.1872 64.9439 15.2832 63.2679 16.6745 61.8548C18.0659 60.4417 19.7247 59.3199 21.5543 58.5547C23.3838 57.7896 25.3474 57.3965 27.3305 57.3984H28.7655C32.4961 57.4675 36.08 58.8637 38.8741 61.3365C45.176 66.7327 53.1993 69.6985 61.4958 69.6985C69.7924 69.6985 77.8157 66.7327 84.1176 61.3365C86.9128 58.8627 90.4982 57.4665 94.2302 57.3984H95.6652C97.648 57.3973 99.6111 57.7911 101.44 58.5567C103.269 59.3223 104.927 60.4445 106.318 61.8577C107.709 63.2709 108.804 64.947 109.54 66.788C110.276 68.629 110.639 70.5982 110.606 72.5807C110.513 78.3474 110.29 86.8118 109.823 94.3968H109.818ZM61.4999 43.0484C63.4932 43.0509 65.4188 42.3258 66.9154 41.0093C68.412 39.6927 69.3766 37.8752 69.6283 35.8979C69.8799 33.9206 69.4012 31.9195 68.2821 30.27C67.1629 28.6206 65.4803 27.4364 63.5499 26.9395V18.4484C63.5499 17.9047 63.334 17.3833 62.9495 16.9989C62.5651 16.6144 62.0436 16.3984 61.4999 16.3984C60.9562 16.3984 60.4348 16.6144 60.0504 16.9989C59.6659 17.3833 59.4499 17.9047 59.4499 18.4484V26.9395C57.5196 27.4364 55.8369 28.6206 54.7178 30.27C53.5987 31.9195 53.12 33.9206 53.3716 35.8979C53.6232 37.8752 54.5879 39.6927 56.0845 41.0093C57.5811 42.3258 59.5067 43.0509 61.4999 43.0484ZM61.4999 30.7484C62.5873 30.7484 63.6302 31.1804 64.3991 31.9493C65.168 32.7182 65.5999 33.761 65.5999 34.8484C65.5999 35.9358 65.168 36.9787 64.3991 37.7476C63.6302 38.5165 62.5873 38.9484 61.4999 38.9484C60.4125 38.9484 59.3697 38.5165 58.6008 37.7476C57.8319 36.9787 57.3999 35.9358 57.3999 34.8484C57.3999 33.761 57.8319 32.7182 58.6008 31.9493C59.3697 31.1804 60.4125 30.7484 61.4999 30.7484Z" fill="#535353"/>
</g>
<defs>
<clipPath id="clip0_337_1648">
<rect width="123" height="123" fill="white"/>
</clipPath>
</defs>
</svg>
