<svg width="123" height="123" viewBox="0 0 123 123" fill="none" xmlns="http://www.w3.org/2000/svg">
<path d="M90.1183 0.238281C82.0065 0.238281 74.2159 3.28807 68.18 8.82671C68.0616 8.93482 67.891 8.93482 67.7726 8.82671C61.7367 3.28807 53.946 0.238281 45.8352 0.238281C27.7029 0.238281 12.9529 15.3402 12.9529 33.9032C12.9529 38.1645 14.416 43.0154 17.2969 48.3493C13.3798 49.1469 9.73234 51.0152 6.79137 53.7828C0.243022 59.9424 -1.80835 69.6458 1.6854 77.9293L3.28801 81.7299C6.42909 89.1762 10.4221 96.0707 15.1573 102.22C15.4644 102.62 15.7747 103.017 16.0883 103.411L17.4554 105.133C20.0248 108.37 23.8697 110.226 28.0025 110.226C31.4624 110.226 34.836 108.863 37.3285 106.474C39.8209 108.864 43.1945 110.226 46.6544 110.226C50.7872 110.226 54.631 108.37 57.2012 105.133L58.5687 103.411C58.8821 103.017 59.1924 102.62 59.4996 102.22C61.0431 100.214 62.4996 98.1415 63.8651 96.0097C65.1458 96.6338 66.5517 96.958 67.9763 96.9577C70.007 96.9577 72.0387 96.3006 73.7345 94.9851C80.0585 90.08 92.2543 80.1787 102.878 68.9777C116.23 54.9013 123 43.1007 123 33.9032C123.001 15.3402 108.25 0.238281 90.1183 0.238281ZM55.6926 99.2887C55.3999 99.6691 55.1042 100.047 54.8056 100.423L53.4382 102.145C51.7856 104.227 49.3131 105.421 46.6544 105.421C44.3357 105.421 42.076 104.47 40.4563 102.81C40.0504 102.391 39.5642 102.059 39.027 101.833C38.4897 101.607 37.9123 101.491 37.3294 101.493H37.3285C36.7454 101.491 36.1679 101.607 35.6305 101.833C35.0931 102.059 34.6068 102.391 34.2006 102.81C32.5809 104.47 30.3213 105.421 28.0025 105.421C25.3448 105.421 22.872 104.227 21.2185 102.145L19.8513 100.423C19.5526 100.048 19.2572 99.6695 18.9653 99.2887C14.4806 93.4656 10.6959 86.9295 7.71556 79.8623L6.1127 76.0617C3.39516 69.6196 4.99128 62.0738 10.0833 57.283C16.1764 51.551 25.3796 51.1334 31.9664 56.2911L34.9261 58.6081V60.4332C34.9261 69.7152 42.4774 77.2665 51.7594 77.2665H54.9783C56.3052 77.2665 57.3807 76.1903 57.3807 74.8634V71.6445C57.3807 63.6279 51.7445 56.9049 44.2268 55.2213C50.6522 51.231 58.9403 51.9846 64.5736 57.283C69.6654 62.0738 71.2618 69.6196 68.544 76.0617L66.9411 79.8623C63.9608 86.9286 60.1763 93.4647 55.6926 99.2887ZM39.7318 59.6169H40.5471C47.18 59.6169 52.5757 65.0119 52.5757 71.6445V72.4611H51.7594C45.1277 72.4611 39.7318 67.0652 39.7318 60.4325V59.6169ZM99.3927 65.6708C88.9876 76.6407 77.0058 86.3667 70.7897 91.1882C70.1721 91.6674 69.4422 91.9806 68.6693 92.0981C67.8965 92.2155 67.1065 92.1333 66.3744 91.8592C68.2375 88.5842 69.9052 85.2018 71.3689 81.7299L72.9715 77.9293C76.4653 69.646 74.4139 59.9424 67.8665 53.7828C64.1022 50.2436 59.1956 48.1684 54.0342 47.9325C48.8725 47.701 43.7981 49.3234 39.7282 52.5066L39.4015 52.7627C38.7735 49.68 37.259 46.8457 34.9835 44.5702L32.4233 42.0102C31.485 41.0728 29.9645 41.0728 29.0252 42.0102C28.0878 42.9486 28.0878 44.4698 29.0252 45.4081L31.5854 47.9683C32.7151 49.0962 33.5952 50.4489 34.1686 51.9387C30.7737 49.5146 26.7503 48.1237 22.583 47.9335C19.3838 42.5479 17.7577 37.8297 17.7577 33.9032C17.7577 17.9895 30.3532 5.043 45.8352 5.043C52.7391 5.043 59.3766 7.64427 64.5239 12.3673C66.4916 14.1729 69.4607 14.1739 71.4287 12.3673C76.576 7.64427 83.2135 5.043 90.1183 5.043C105.599 5.043 118.195 17.9893 118.195 33.9032C118.195 41.7174 111.694 52.7027 99.3927 65.6706V65.6708Z" fill="#535353"/>
<path d="M107.57 33.9781H92.2018C91.7146 33.978 91.2389 34.1261 90.8378 34.4027C90.4367 34.6793 90.1292 35.0713 89.9561 35.5266L84.5133 49.8327L75.6611 21.1435C75.5172 20.678 75.2353 20.2672 74.8527 19.9655C74.4701 19.6638 74.0049 19.4855 73.5187 19.4542C73.0324 19.4229 72.5481 19.5403 72.1301 19.7907C71.7121 20.0411 71.3802 20.4127 71.1783 20.8562L65.2005 33.9781H50.4402C49.1141 33.9781 48.0378 35.0543 48.0378 36.3804C48.0378 37.7075 49.1141 38.7838 50.4402 38.7838H66.7462C67.6874 38.7838 68.5422 38.2339 68.9326 37.3772L72.9322 28.5982L81.9805 57.9219C82.1279 58.4 82.4209 58.8202 82.8186 59.1238C83.2162 59.4275 83.6987 59.5995 84.1988 59.6158C84.2252 59.6158 84.2517 59.6168 84.2769 59.6168C85.2715 59.6168 86.1668 59.002 86.5224 58.0684L93.858 38.7838H107.57C108.897 38.7838 109.973 37.7075 109.973 36.3814C109.973 35.0546 108.897 33.9781 107.57 33.9781ZM39.3096 33.9781C38.6753 33.9781 38.0577 34.2351 37.6111 34.682C37.1609 35.1327 36.9075 35.7434 36.9062 36.3804C36.9063 37.013 37.1616 37.6323 37.6111 38.0789C38.0625 38.5281 38.6727 38.7814 39.3096 38.7838C39.9411 38.7838 40.5612 38.5267 41.008 38.0791C41.457 37.6276 41.7099 37.0174 41.7119 36.3807C41.7119 35.7489 41.4549 35.1286 41.008 34.682C40.5612 34.2354 39.9411 33.9781 39.3096 33.9781Z" fill="#535353"/>
</svg>
