<svg width="112" height="117" viewBox="0 0 112 117" fill="none" xmlns="http://www.w3.org/2000/svg">
<path d="M108.396 116.446H108.404C109.441 116.446 110.386 115.836 110.812 114.891C111.022 114.426 111.092 113.911 111.015 113.407C110.939 112.903 110.718 112.432 110.38 112.05L103.292 104.067C101.426 101.874 98.3078 101.197 95.6994 102.422C94.7748 102.857 93.9674 103.506 93.3441 104.316L92.7805 105.049L89.244 105.681L77.4262 102.351C73.2111 101.164 68.7561 101.121 64.5189 102.226L63.5531 102.478L52.6201 90.9815C52.2126 87.3326 50.5565 83.9367 47.9321 81.369L46.2337 79.7051C45.0781 73.7175 46.7144 67.42 50.6646 62.7551L51.7545 61.4677C53.4674 59.5944 54.5508 57.193 54.8074 54.6494L56.6308 54.9237L56.4737 55.5279C55.9779 57.444 55.9161 59.4466 56.2928 61.3896C57.184 65.955 60.4608 69.7587 64.8444 71.3161L65.8262 71.6645C66.1581 71.7822 66.5159 71.8066 66.8606 71.7349C67.2054 71.6632 67.5238 71.4982 67.7812 71.258C68.0386 71.0176 68.2249 70.7111 68.3199 70.372C68.4149 70.0329 68.4149 69.6742 68.3199 69.3351L67.1975 65.3271C66.8869 64.2221 66.8225 63.0625 67.0089 61.93C67.1952 60.7975 67.6278 59.7196 68.2761 58.7725C70.0053 56.2402 70.1492 53.005 68.6516 50.329L68.2281 49.5723C68.5898 48.6235 68.7754 47.6167 68.7758 46.6013C68.7758 43.4372 66.9399 40.4921 64.0989 39.0988L62.8761 38.4989L60.77 37.2545L58.2632 34.6335L60.2439 32.1401C61.318 30.7834 62.0892 29.2125 62.5057 27.5329L66.4352 15.3057L70.265 12.5325C70.6276 12.27 70.8872 11.8892 70.9989 11.4557L72.8312 4.34935C72.8963 4.09756 72.9096 3.83517 72.8702 3.57809C72.8309 3.32102 72.7397 3.07461 72.6023 2.8538C72.4649 2.633 72.2841 2.44239 72.0709 2.29354C71.8576 2.14469 71.6163 2.04069 71.3617 1.98785L63.2403 0.29852C62.818 0.210127 62.3782 0.266622 61.992 0.458885C61.6057 0.651149 61.2955 0.967963 61.1114 1.35819L57.1701 9.69192L46.7999 28.0867C46.0034 29.4982 45.4461 31.0319 45.1505 32.6254L42.7962 45.2927L34.271 47.8104C30.346 48.9698 27.7544 52.7705 28.1089 56.848L28.3807 59.9739L28.1342 61.1777C26.977 66.8281 26.9599 72.745 28.0662 78.4129L14.1994 73.8475C12.2352 73.2028 10.1083 73.2592 8.18102 74.007L8.07628 74.0476C3.81789 75.7054 1.42515 80.1452 2.38753 84.6042C3.83182 91.2971 6.04149 101.595 6.83835 105.311L2.36807 107.768C1.47301 108.256 0.781305 109.047 0.417101 110C0.0528975 110.952 0.0400458 112.003 0.380852 112.964L0.397187 113.01C1.01219 114.759 2.6626 115.93 4.50736 115.93H4.52417C6.40137 115.923 9.44682 115.921 11.7769 115.921C14.4646 115.92 16.951 114.579 18.4294 112.332L18.4655 112.277C19.504 110.698 19.964 108.799 19.7603 106.93C19.3968 103.593 18.704 97.2163 18.2509 93.0472C21.5927 95.1156 25.046 96.998 28.5952 98.6858L30.4757 99.5795L54.4795 113.952C56.8239 115.355 59.4997 116.109 62.2318 116.136L108.396 116.446L108.396 116.446ZM94.189 108.702C94.6604 108.618 95.0834 108.361 95.3753 107.982L96.3922 106.657C96.6411 106.334 96.9635 106.075 97.3327 105.901C97.842 105.663 98.4155 105.599 98.9647 105.719C99.5138 105.839 100.008 106.137 100.371 106.566L100.403 106.603L105.723 112.594L90.8301 112.55L90.9917 109.274L94.1893 108.703L94.189 108.702ZM31.6695 63.1837L42.7462 70.0494C42.0368 72.9081 41.8431 75.8947 42.2085 78.8484L32.19 79.3097C30.9303 74.0572 30.7549 68.5116 31.6695 63.1837ZM65.1022 56.6046C64.1523 57.9924 63.5133 59.5689 63.2288 61.2264C62.9444 62.8839 63.0213 64.5832 63.4541 66.2083C61.7249 64.8356 60.4983 62.8709 60.0652 60.6528C59.7981 59.2748 59.8419 57.8545 60.1935 56.4956L60.5 55.3172C62.3323 55.2055 64.0765 54.4926 65.4625 53.2889L65.6715 53.108C66.0088 54.2854 65.8157 55.5599 65.1022 56.6046ZM61.1493 46.7579L62.8932 42.8303C64.1463 43.6567 64.9318 45.0813 64.9318 46.6013C64.932 47.2476 64.7933 47.8865 64.525 48.4746C64.2568 49.0626 63.8653 49.5862 63.377 50.0097L62.9434 50.3859C62.4509 50.814 61.8713 51.13 61.2447 51.3121C60.6181 51.4942 59.9594 51.538 59.3142 51.4406L55.1233 50.81L55.2886 48.762L59.7711 47.8623C60.0724 47.8018 60.3548 47.67 60.5946 47.4778C60.8344 47.2857 61.0247 47.0388 61.1493 46.7579ZM59.5112 40.9755L58.0397 44.2893L55.6103 44.7769L56.1577 37.9935L58.1755 40.1027C58.297 40.2297 58.4353 40.3395 58.5865 40.4289L59.5114 40.9755H59.5112ZM48.9296 33.3281C49.148 32.1506 49.5598 31.0173 50.1483 29.9742L60.5521 11.5196C60.5747 11.4797 60.5956 11.4389 60.6153 11.3976L63.9392 4.37001L68.6062 5.34056L67.45 9.82549L63.6711 12.5618C63.3397 12.8016 63.0936 13.141 62.9684 13.5304C62.9684 13.5304 58.7972 26.516 58.7859 26.5631C58.5057 27.7252 57.9761 28.8124 57.234 29.7496L52.8478 35.2718C52.6107 35.5703 52.4677 35.9326 52.437 36.3125L51.0006 54.1096C50.8623 55.8248 50.1625 57.452 49.0406 58.736C49.0069 58.7701 48.3535 59.4459 48.0638 59.6809C46.7276 60.7641 44.829 60.914 43.3393 60.0544C42.7029 59.6859 42.1745 59.1566 41.807 58.5196C41.4394 57.8825 41.2457 57.1601 41.2452 56.4247L41.2459 55.5075C41.248 54.5772 41.5584 53.6739 42.1285 52.9389C42.1285 52.9389 46.0028 47.9584 46.0115 47.9468C46.0405 47.9072 48.9296 33.3281 48.9296 33.3281ZM35.3599 51.4965L39.4944 49.8666C38.4032 51.2683 37.4031 53.7295 37.4019 55.5049L37.4015 56.4216C37.3991 59.2852 38.9382 61.953 41.4184 63.3841C42.4843 63.9974 43.6775 64.3561 44.9049 64.4322C44.5781 65.0439 44.2778 65.6694 44.0048 66.307L32.1509 58.9597L31.9383 56.5148C31.7413 54.2508 33.1803 52.1404 35.3599 51.4965ZM15.217 110.221C14.8427 110.792 14.3322 111.26 13.7314 111.584C13.1307 111.908 12.4587 112.077 11.7761 112.077C9.44201 112.077 6.3908 112.079 4.50976 112.086H4.5076C4.28826 112.086 4.09824 111.948 4.02353 111.736L4.00719 111.69C3.97084 111.587 3.97219 111.475 4.01098 111.374C4.04977 111.272 4.12347 111.188 4.21884 111.136L9.54724 108.209L15.9576 107.951C15.93 108.74 15.6862 109.506 15.2528 110.166L15.217 110.221ZM56.4542 110.654C56.4542 110.654 32.2645 96.1734 32.209 96.1472L30.2451 95.2139C25.8861 93.141 21.6782 90.764 17.6527 88.1006L16.9657 87.646C16.6613 87.4446 16.3059 87.3341 15.941 87.3272C15.5761 87.3204 15.2168 87.4177 14.9052 87.6076C14.5935 87.7975 14.3424 88.0723 14.1812 88.3997C14.0199 88.7271 13.9553 89.0936 13.9947 89.4565C13.9947 89.4565 14.9405 98.1664 15.5882 104.119L10.5574 104.321C9.72885 100.459 7.5665 90.3806 6.14455 83.7932C5.58313 81.1905 6.98201 78.5981 9.46892 77.63L9.57366 77.5891C10.6699 77.1632 11.8801 77.1309 12.9975 77.4978C12.9975 77.4978 30.3734 83.1962 30.4073 83.2012C30.4308 83.2048 43.723 82.6266 43.723 82.6266L45.2427 84.1151C47.3674 86.194 48.6512 88.9831 48.8486 91.9491C48.8785 92.3968 49.0642 92.8198 49.3733 93.145L61.5489 105.948C61.7855 106.197 62.0846 106.378 62.4149 106.472C62.7452 106.566 63.0947 106.57 63.427 106.483L65.4894 105.945C69.0658 105.013 72.8259 105.049 76.3836 106.051L87.1525 109.085L86.9829 112.526L62.2686 112.292C60.2195 112.272 58.2127 111.707 56.4542 110.654V110.654Z" fill="#535353"/>
</svg>
