<svg width="21" height="17" viewBox="0 0 21 17" fill="none" xmlns="http://www.w3.org/2000/svg">
<path d="M1.85547 11.7655L0.66991 3.98105C0.582211 3.40617 1.23053 3.01373 1.69111 3.36286L5.38486 6.16111C5.48087 6.23377 5.59053 6.2859 5.70715 6.31431C5.82377 6.34273 5.9449 6.34684 6.06315 6.32639C6.18139 6.30594 6.29427 6.26136 6.39489 6.19537C6.49551 6.12938 6.58176 6.04336 6.64837 5.94258L9.72368 1.2832C10.0485 0.791016 10.7644 0.791016 11.0892 1.2832L14.1645 5.94258C14.2311 6.04336 14.3174 6.12938 14.418 6.19537C14.5186 6.26136 14.6315 6.30594 14.7497 6.32639C14.868 6.34684 14.9891 6.34273 15.1057 6.31431C15.2223 6.2859 15.332 6.23377 15.428 6.16111L19.1217 3.36286C19.583 3.01373 20.2307 3.40617 20.143 3.98105L18.9574 11.7655H1.85547ZM18.0655 16.0849H2.7474C2.63027 16.0849 2.51429 16.0616 2.40607 16.0163C2.29786 15.9711 2.19953 15.9047 2.11671 15.821C1.94944 15.652 1.85547 15.4229 1.85547 15.1839V13.2053H18.9574V15.1839C18.9574 15.6813 18.5579 16.0849 18.0655 16.0849Z" fill="#FFB743"/>
</svg>
